<?xml version="1.0" standalone="no"?>
<!DOCTYPE svg PUBLIC "-//W3C//DTD SVG 20010904//EN"
 "http://www.w3.org/TR/2001/REC-SVG-20010904/DTD/svg10.dtd">
<svg version="1.0" xmlns="http://www.w3.org/2000/svg"
 width="535.000000pt" height="225.000000pt" viewBox="0 0 535.000000 225.000000"
 preserveAspectRatio="xMidYMid meet">

<g transform="translate(0.000000,225.000000) scale(0.100000,-0.100000)"
fill="#000000" stroke="none">
<path d="M170 1130 l0 -950 2495 0 2495 0 0 950 0 950 -2495 0 -2495 0 0 -950z
m4810 0 l0 -770 -2315 0 -2315 0 0 770 0 770 2315 0 2315 0 0 -770z"/>
<path d="M1255 1771 c-71 -18 -132 -79 -164 -165 -20 -54 -21 -74 -21 -433 0
-418 5 -475 53 -554 43 -71 96 -99 186 -99 160 1 235 92 253 309 13 169 17
162 -95 159 l-92 -3 -6 -101 c-7 -133 -37 -184 -83 -139 -33 33 -38 93 -34
415 3 291 5 318 23 355 24 48 57 58 76 23 7 -13 16 -59 19 -103 l5 -80 94 -3
93 -3 -4 123 c-3 104 -7 130 -27 168 -30 59 -68 98 -110 116 -42 18 -126 26
-166 15z"/>
<path d="M4428 1731 c-12 -32 1 -1182 13 -1196 13 -13 191 -18 319 -8 l105 8
3 99 c2 73 -1 102 -10 108 -7 4 -52 8 -100 8 -47 0 -93 3 -102 6 -14 5 -16 59
-16 500 0 388 -3 494 -12 495 -7 0 -53 2 -102 2 -85 2 -89 1 -98 -22z"/>
<path d="M676 1728 c-33 -116 -219 -1192 -208 -1203 3 -3 52 -5 108 -5 89 0
103 2 108 18 5 18 36 191 36 205 0 4 19 7 43 7 l43 0 17 -90 c29 -149 20 -140
137 -140 l100 0 -5 28 c-3 15 -23 149 -45 297 -51 341 -116 738 -137 833 l-16
72 -87 0 c-82 0 -88 -1 -94 -22z m109 -721 l7 -67 -27 0 -28 0 7 63 c4 34 10
73 13 86 6 23 7 24 14 5 4 -11 10 -50 14 -87z"/>
<path d="M1630 1135 l0 -615 208 2 207 3 0 105 0 105 -105 5 -105 5 0 135 0
135 80 5 80 5 9 97 c4 53 5 109 2 124 -6 24 -10 26 -59 23 -29 -1 -67 -1 -85
-1 l-33 2 3 133 3 132 103 3 103 3 -3 102 -3 102 -202 3 -203 2 0 -615z"/>
<path d="M2375 1686 c-4 -35 -6 -308 -4 -605 4 -468 6 -543 19 -551 29 -19
169 -7 175 14 2 6 7 123 10 259 l7 248 52 -3 51 -3 5 -260 5 -260 70 1 c39 0
77 3 86 6 14 5 16 70 22 570 3 309 3 582 0 606 l-6 43 -86 -3 -86 -3 -3 -219
c-1 -146 -6 -224 -14 -233 -7 -9 -26 -13 -52 -11 l-41 3 -5 230 -5 230 -97 3
-96 3 -7 -65z"/>
<path d="M3060 1728 c-49 -25 -83 -69 -103 -132 -9 -30 -12 -158 -12 -481 0
-402 2 -444 18 -487 35 -89 105 -123 239 -116 124 7 185 61 207 182 15 80 15
792 0 872 -16 87 -44 129 -103 159 -69 34 -181 35 -246 3z m150 -217 c6 -13
10 -149 10 -375 0 -309 -2 -357 -16 -370 -19 -19 -36 -20 -52 -4 -16 16 -17
719 -2 749 6 10 19 19 30 19 11 0 24 -9 30 -19z"/>
<path d="M3430 1730 c-6 -11 -10 -55 -8 -98 l3 -77 75 -5 75 -5 3 -504 c2
-389 5 -507 15 -513 6 -4 51 -8 99 -8 87 0 88 0 94 27 4 14 5 241 1 504 -4
342 -2 480 6 488 6 6 42 11 79 11 l69 0 -3 98 -3 97 -247 3 c-239 2 -247 2
-258 -18z"/>
<path d="M3962 1138 l3 -613 95 -5 c52 -3 145 -3 205 0 l110 5 0 105 0 105
-85 3 c-142 4 -131 -9 -128 145 l3 132 80 5 80 5 8 55 c4 30 6 84 5 120 l-3
65 -60 1 c-33 1 -73 2 -88 3 l-28 1 3 133 3 132 103 3 103 3 -3 102 -3 102
-203 3 -202 2 2 -612z"/>
</g>
</svg>
