<?xml version="1.0" standalone="no"?>
<!DOCTYPE svg PUBLIC "-//W3C//DTD SVG 20010904//EN"
 "http://www.w3.org/TR/2001/REC-SVG-20010904/DTD/svg10.dtd">
<svg version="1.0" xmlns="http://www.w3.org/2000/svg"
 width="533.000000pt" height="176.000000pt" viewBox="0 0 533.000000 176.000000"
 preserveAspectRatio="xMidYMid meet">

<g transform="translate(0.000000,176.000000) scale(0.100000,-0.100000)"
fill="#000000" stroke="none">
<path d="M294 1624 c-58 -21 -120 -77 -152 -138 l-27 -51 0 -545 c0 -516 1
-547 19 -580 33 -61 68 -100 112 -126 46 -27 160 -50 200 -40 l24 6 0 605 0
605 243 0 c292 0 358 -8 454 -55 145 -71 212 -198 201 -383 -12 -205 -159
-339 -395 -362 -54 -5 -133 -10 -175 -10 l-78 0 0 -206 0 -205 328 3 c317 3
329 4 377 26 61 28 98 62 133 122 l27 45 0 555 c0 554 0 555 -22 596 -28 53
-74 99 -127 127 -41 22 -45 22 -571 24 -446 1 -537 -1 -571 -13z"/>
<path d="M1880 1164 l0 -245 53 3 52 3 3 71 3 71 78 6 c117 8 168 43 192 130
22 81 -33 173 -116 196 -22 6 -91 11 -152 11 l-113 0 0 -246z m219 146 c63
-18 81 -81 36 -125 -20 -21 -34 -25 -85 -25 l-60 0 0 80 0 80 38 0 c20 0 52
-4 71 -10z"/>
<path d="M2350 1166 l0 -246 50 0 49 0 3 78 3 77 45 2 45 2 50 -77 50 -77 59
-3 c69 -4 69 -3 1 92 -25 35 -45 66 -45 70 0 3 20 25 44 49 35 34 46 51 51 88
10 64 -19 127 -71 160 -36 22 -52 24 -186 28 l-148 3 0 -246z m249 143 c57
-20 70 -83 24 -119 -22 -17 -38 -20 -97 -18 l-71 3 -3 59 c-2 32 -1 65 2 72 7
17 99 19 145 3z"/>
<path d="M2860 1165 l0 -245 185 0 185 0 0 45 0 44 -132 3 -133 3 -3 53 -3 52
115 0 116 0 0 45 0 44 -112 3 -113 3 0 50 0 50 128 3 127 3 0 44 0 45 -180 0
-180 0 0 -245z"/>
<path d="M3330 1165 l0 -245 50 0 49 0 3 158 3 157 65 -97 c36 -54 68 -98 72
-98 3 0 35 44 70 98 l63 97 3 -158 3 -158 52 3 52 3 0 240 0 240 -56 3 -56 3
-59 -97 c-33 -54 -64 -99 -69 -101 -6 -1 -37 41 -70 95 l-61 97 -57 3 -57 3 0
-246z"/>
<path d="M3944 1397 c-2 -7 -3 -116 -2 -242 l3 -230 53 -3 52 -3 0 245 0 246
-50 0 c-32 0 -52 -5 -56 -13z"/>
<path d="M4170 1238 c0 -198 10 -234 76 -284 32 -25 48 -29 115 -33 99 -4 155
19 196 80 28 42 28 44 31 226 l4 183 -51 0 -51 0 0 -150 c0 -163 -9 -204 -51
-234 -30 -20 -88 -21 -117 0 -45 31 -52 62 -52 229 l0 155 -50 0 -50 0 0 -172z"/>
<path d="M4710 1165 l0 -245 50 0 49 0 3 157 3 157 64 -97 c35 -53 66 -97 70
-97 3 0 35 44 71 98 l65 97 3 -157 3 -158 49 0 50 0 0 245 0 245 -54 0 -55 0
-62 -100 c-34 -55 -65 -100 -69 -100 -4 0 -35 45 -70 100 l-62 100 -54 0 -54
0 0 -245z"/>
<path d="M720 955 l0 -177 133 4 c114 3 137 7 172 26 61 35 89 83 88 148 -2
69 -26 112 -82 143 -37 21 -60 24 -177 29 l-134 5 0 -178z"/>
<path d="M1887 803 c-4 -3 -7 -114 -7 -245 l0 -238 55 0 55 0 0 75 0 75 65 0
c118 0 187 46 205 137 11 49 10 58 -12 100 -29 58 -63 84 -125 94 -59 10 -227
11 -236 2z m253 -115 c27 -30 26 -73 -5 -103 -20 -21 -34 -25 -85 -25 l-60 0
0 75 0 75 65 0 c53 0 68 -4 85 -22z"/>
<path d="M2386 578 c-54 -128 -101 -239 -103 -245 -4 -10 9 -13 46 -13 l52 0
24 55 25 55 104 0 104 0 22 -55 22 -55 54 0 53 0 -10 28 c-6 15 -52 124 -102
242 l-92 215 -50 3 -50 3 -99 -233z m178 33 c37 -90 36 -91 -34 -91 -33 0 -60
4 -60 9 0 5 9 31 21 58 11 26 25 59 30 72 12 29 11 30 43 -48z"/>
<path d="M2890 565 l0 -245 50 0 49 0 3 78 3 77 41 3 41 3 54 -80 54 -80 58
-1 c31 0 57 2 57 5 0 3 -26 42 -57 87 -41 58 -53 83 -43 86 7 3 29 20 49 38
35 32 36 34 36 109 0 75 -1 77 -36 110 -46 42 -106 55 -249 55 l-110 0 0 -245z
m274 129 c27 -27 31 -63 9 -92 -18 -25 -27 -27 -102 -30 l-81 -3 0 71 0 70 79
0 c59 0 84 -4 95 -16z"/>
<path d="M3417 803 c-4 -3 -7 -114 -7 -245 l0 -238 55 0 55 0 0 78 c0 73 2 80
28 105 l28 27 75 -104 74 -105 64 -1 c49 0 61 3 54 13 -22 27 -179 243 -187
255 -5 8 24 46 83 110 50 53 91 100 91 104 0 5 -24 8 -52 8 l-53 1 -102 -108
-102 -108 -1 101 c0 83 -3 103 -16 108 -21 8 -79 8 -87 -1z"/>
<path d="M3950 566 l0 -246 50 0 50 0 -2 243 -3 242 -47 3 -48 3 0 -245z"/>
<path d="M4197 803 c-4 -3 -7 -114 -7 -245 l0 -238 55 0 55 0 0 156 0 157 118
-156 117 -156 48 -1 47 0 -2 243 -3 242 -50 0 -50 0 -5 -147 -5 -148 -114 150
-113 150 -42 0 c-24 0 -46 -3 -49 -7z"/>
<path d="M4885 786 c-57 -27 -84 -53 -114 -111 -62 -120 -16 -272 101 -331 44
-23 66 -27 128 -27 78 0 125 14 181 54 l30 21 -3 101 -3 102 -102 3 -103 3 0
-45 0 -45 53 -3 c50 -3 52 -4 55 -35 4 -44 -26 -63 -102 -63 -74 0 -116 28
-141 95 -31 81 4 170 78 200 52 21 87 19 139 -9 l45 -24 26 34 c15 18 27 38
27 44 0 6 -24 22 -52 35 -73 34 -173 34 -243 1z"/>
</g>
</svg>
