<?xml version="1.0" standalone="no"?>
<!DOCTYPE svg PUBLIC "-//W3C//DTD SVG 20010904//EN"
 "http://www.w3.org/TR/2001/REC-SVG-20010904/DTD/svg10.dtd">
<svg version="1.0" xmlns="http://www.w3.org/2000/svg"
 width="916.000000pt" height="354.000000pt" viewBox="0 0 916.000000 354.000000"
 preserveAspectRatio="xMidYMid meet">

<g transform="translate(0.000000,354.000000) scale(0.100000,-0.100000)"
fill="#000000" stroke="none">
<path d="M4630 3372 c0 -17 -69 -36 -125 -35 -37 1 -66 -4 -75 -12 -8 -7 -41
-15 -73 -17 -54 -4 -61 -8 -100 -50 -23 -25 -63 -55 -90 -68 -26 -13 -55 -32
-64 -42 -15 -17 -15 -21 0 -54 9 -19 17 -43 17 -54 0 -10 15 -30 33 -44 l32
-26 -46 0 c-51 0 -85 -24 -59 -40 9 -5 20 -4 29 3 12 9 13 9 7 0 -5 -10 2 -13
26 -12 33 0 33 0 8 12 -24 10 -24 11 15 16 22 3 52 14 67 25 16 10 35 15 45
12 13 -5 5 -15 -38 -44 -54 -36 -55 -38 -48 -72 4 -19 19 -44 33 -55 l25 -20
-28 -42 c-32 -48 -41 -94 -40 -205 0 -42 -4 -86 -10 -97 -27 -49 -96 -51 -151
-5 -33 29 -50 25 -50 -12 0 -42 26 -90 66 -120 32 -25 46 -29 103 -29 53 0 75
5 115 28 27 15 55 27 64 27 35 0 95 26 131 56 l38 33 19 -20 c28 -31 64 -47
132 -58 35 -6 74 -20 92 -32 37 -28 143 -38 191 -19 34 15 59 55 59 98 0 38
-5 42 -47 30 -25 -7 -44 -6 -64 3 -61 24 -64 79 -12 164 27 43 37 73 39 105 1
25 11 68 24 95 17 39 20 60 15 95 -3 25 -8 63 -9 85 -2 22 -13 65 -26 95 -12
30 -25 78 -29 106 -9 72 -31 99 -93 119 -35 12 -63 29 -81 51 -25 30 -67 47
-67 26z m56 -47 c16 -24 16 -27 -2 -39 -22 -17 -32 -12 -45 21 -8 23 -10 23
-26 8 -23 -23 -7 -67 31 -80 23 -8 30 -6 42 9 8 11 17 16 21 12 5 -4 -2 -16
-15 -26 l-23 -19 33 -17 c58 -30 88 -57 119 -106 60 -99 56 -182 -15 -253 -39
-39 -101 -73 -112 -62 -3 3 13 24 36 48 81 85 104 160 71 234 -20 44 -59 91
-68 81 -3 -2 3 -18 11 -35 19 -35 21 -138 4 -175 -10 -23 -12 -24 -23 -9 -11
15 -14 14 -25 -8 -7 -13 -37 -55 -67 -94 -29 -38 -53 -75 -53 -81 0 -6 -7 -17
-15 -24 -13 -11 -15 -7 -15 24 0 20 7 53 15 73 l15 35 -23 -14 c-12 -9 -34
-39 -49 -68 -32 -60 -38 -139 -13 -160 8 -7 29 -39 47 -72 17 -32 48 -74 70
-93 l38 -35 -28 0 c-34 0 -100 45 -131 89 -45 63 -61 154 -40 237 6 25 9 48 5
51 -3 3 -23 -5 -44 -19 -35 -24 -53 -51 -95 -148 l-16 -35 0 45 c-1 57 27 118
70 154 18 16 81 51 138 77 164 77 201 114 201 203 0 70 -60 129 -139 138 -50
5 -47 -12 9 -52 62 -44 85 -84 76 -132 -9 -50 -46 -79 -176 -142 -63 -30 -132
-69 -152 -86 -50 -41 -73 -116 -63 -200 10 -86 -2 -158 -31 -187 -14 -13 -22
-28 -20 -32 21 -33 -89 -54 -142 -27 -17 9 -36 25 -42 36 -10 19 -8 19 49 13
106 -11 134 26 145 187 12 198 33 222 299 345 42 20 84 65 93 101 7 26 -12 84
-27 84 -5 0 -9 -9 -9 -19 0 -10 -7 -21 -15 -25 -8 -3 -15 -14 -15 -24 0 -11
-7 -25 -15 -32 -21 -18 -19 -30 7 -30 17 0 19 -3 10 -12 -6 -6 -26 -11 -44
-10 -60 2 -108 -18 -164 -69 -54 -49 -88 -61 -112 -37 -7 7 -12 19 -12 27 1
18 126 101 152 101 28 0 22 12 -31 64 l-49 48 -60 -22 c-79 -29 -96 -23 -87
30 6 34 4 39 -9 34 -10 -4 -16 -1 -16 7 0 8 30 29 67 46 60 29 69 31 83 18 22
-20 69 -19 77 1 3 9 0 20 -7 24 -7 4 -10 12 -6 18 3 6 -6 15 -21 20 l-28 9 40
12 c67 19 136 14 191 -14 53 -27 75 -32 56 -13 -20 20 -13 55 16 77 38 29 78
27 98 -4z m130 -111 c4 -14 4 -27 1 -30 -9 -10 -67 49 -67 68 0 17 2 18 30 3
16 -8 33 -27 36 -41z m-606 -204 c0 -5 -4 -10 -10 -10 -5 0 -10 5 -10 10 0 6
5 10 10 10 6 0 10 -4 10 -10z m640 -234 c0 -8 -27 -40 -59 -73 -33 -32 -63
-71 -66 -86 -9 -35 2 -97 18 -97 7 0 20 -21 31 -46 23 -56 55 -78 126 -84 l55
-5 -27 -27 c-32 -33 -74 -36 -133 -9 -50 23 -68 43 -96 106 -16 35 -23 71 -23
117 -1 52 -4 64 -13 56 -7 -6 -13 -19 -13 -30 0 -31 -25 -15 -28 18 -4 43 27
77 95 105 32 12 74 33 93 46 41 27 40 27 40 9z m-430 -186 c18 -100 16 -127
-7 -158 -19 -26 -77 -51 -89 -39 -3 3 1 18 9 34 8 15 20 68 26 116 12 90 29
144 41 130 4 -5 13 -42 20 -83z"/>
<path d="M4185 3140 c-3 -5 -1 -10 4 -10 6 0 11 5 11 10 0 6 -2 10 -4 10 -3 0
-8 -4 -11 -10z"/>
<path d="M4340 3096 c0 -17 58 -61 67 -52 7 7 -46 66 -59 66 -4 0 -8 -6 -8
-14z"/>
<path d="M4445 2334 c-34 -34 -35 -37 -19 -55 21 -23 11 -54 -14 -44 -30 12
-44 11 -55 -7 -17 -25 13 -54 40 -40 39 21 64 -27 31 -58 -30 -28 -101 -27
-129 1 -19 19 -20 31 -5 69 3 9 -5 22 -20 34 -26 18 -26 18 -47 -2 -20 -21
-20 -22 -2 -56 17 -32 17 -36 2 -59 -19 -30 -60 -39 -87 -20 -29 21 -26 53 5
53 29 0 35 29 10 50 -12 10 -18 10 -30 0 -23 -19 -47 -4 -43 27 2 23 -3 30
-32 44 -19 10 -37 13 -38 8 -2 -5 15 -52 38 -104 26 -61 39 -103 35 -115 -4
-11 3 -45 14 -75 12 -31 21 -71 21 -90 l0 -35 363 2 362 3 6 55 c3 31 11 66
18 78 6 12 11 39 10 60 -1 24 11 64 36 117 56 122 57 124 34 118 -11 -3 -22
-9 -25 -14 -3 -5 -14 -9 -25 -9 -19 0 -23 -8 -19 -48 2 -26 -24 -39 -45 -22
-12 10 -18 10 -30 0 -22 -19 -18 -39 10 -50 46 -18 24 -60 -32 -60 -24 0 -37
7 -49 25 -16 24 -16 28 2 60 18 35 18 35 -3 56 -20 20 -22 20 -47 4 -18 -12
-25 -23 -20 -34 15 -38 15 -50 -5 -70 -29 -29 -103 -29 -131 -1 -24 24 -25 34
-4 54 19 19 26 20 42 4 19 -19 51 16 35 40 -11 18 -25 19 -55 7 -25 -10 -35
21 -14 44 15 17 14 20 -18 54 l-34 36 -37 -35z m210 -294 c181 -13 176 -11
163 -58 -6 -20 -15 -43 -20 -49 -8 -10 -84 -13 -319 -13 -342 0 -318 -5 -334
67 -6 29 -4 33 20 39 30 7 196 20 290 22 33 1 123 -3 200 -8z"/>
<path d="M4242 2008 c-34 -34 -2 -71 60 -66 42 3 43 4 46 41 l3 37 -48 0 c-27
0 -54 -5 -61 -12z m68 -23 c0 -8 -7 -15 -15 -15 -8 0 -15 7 -15 15 0 8 7 15
15 15 8 0 15 -7 15 -15z"/>
<path d="M4424 2006 c-3 -8 -4 -25 -2 -38 3 -21 8 -23 58 -23 l55 0 3 38 3 37
-56 0 c-39 0 -57 -4 -61 -14z m74 -24 c2 -7 -3 -12 -12 -12 -9 0 -16 7 -16 16
0 17 22 14 28 -4z"/>
<path d="M4618 2008 c-3 -7 -2 -23 0 -35 4 -21 10 -23 59 -23 l54 0 -3 33 c-3
31 -4 32 -55 35 -34 2 -52 -1 -55 -10z m72 -23 c0 -8 -7 -15 -15 -15 -8 0 -15
7 -15 15 0 8 7 15 15 15 8 0 15 -7 15 -15z"/>
<path d="M4190 1980 c0 -5 5 -10 11 -10 5 0 7 5 4 10 -3 6 -8 10 -11 10 -2 0
-4 -4 -4 -10z"/>
<path d="M4375 1980 c-3 -5 1 -10 9 -10 9 0 16 5 16 10 0 6 -4 10 -9 10 -6 0
-13 -4 -16 -10z"/>
<path d="M4570 1980 c0 -5 5 -10 11 -10 5 0 7 5 4 10 -3 6 -8 10 -11 10 -2 0
-4 -4 -4 -10z"/>
<path d="M4760 1980 c0 -5 5 -10 10 -10 6 0 10 5 10 10 0 6 -4 10 -10 10 -5 0
-10 -4 -10 -10z"/>
<path d="M1361 1284 c-12 -34 -14 -64 -5 -64 4 0 24 16 46 36 25 22 47 34 61
32 21 -3 22 -8 25 -150 2 -140 2 -147 -18 -153 -40 -13 -8 -25 65 -25 73 0
105 12 65 25 -19 6 -20 15 -20 156 l0 149 25 0 c15 0 42 -15 65 -36 22 -20 42
-35 45 -33 2 2 -1 24 -6 49 l-10 45 -163 0 -164 0 -11 -31z"/>
<path d="M3554 1309 c-6 -10 -17 -89 -12 -89 3 0 22 16 42 35 22 20 48 35 62
35 l24 0 0 -150 c0 -124 -3 -152 -15 -156 -8 -4 -12 -10 -9 -15 6 -10 137 -13
146 -3 4 3 -2 14 -13 25 -17 17 -19 34 -19 143 0 68 3 131 6 140 10 26 48 18
92 -20 40 -34 42 -34 41 -12 -1 13 -4 34 -8 47 -6 23 -7 23 -170 25 -89 0
-165 -2 -167 -5z"/>
<path d="M4816 1313 c-35 -10 -91 -52 -109 -82 -74 -126 18 -281 166 -281 28
0 66 5 84 12 26 9 38 10 53 1 23 -15 30 0 30 63 0 54 -16 57 -47 10 -22 -34
-76 -66 -111 -66 -27 0 -77 43 -92 80 -19 46 -9 173 16 206 44 59 122 56 182
-7 21 -21 41 -36 45 -32 10 9 9 81 -1 87 -12 7 -195 15 -216 9z"/>
<path d="M6340 1280 c-19 -69 -10 -76 33 -30 30 31 68 47 86 35 7 -4 11 -58
11 -145 0 -127 -2 -140 -20 -153 -29 -20 -15 -27 61 -27 65 0 96 11 64 24 -12
4 -15 32 -15 156 l0 150 24 0 c14 0 40 -15 62 -35 20 -19 38 -35 40 -35 7 0 3
54 -5 74 -6 16 -21 18 -169 20 l-162 1 -10 -35z"/>
<path d="M6850 1304 c-75 -33 -115 -98 -108 -180 14 -161 194 -228 326 -121
44 35 65 141 41 204 -34 91 -162 139 -259 97z m134 -27 c21 -21 46 -99 46
-142 0 -43 -25 -121 -46 -142 -49 -49 -124 -15 -139 65 -11 59 -7 149 9 187
24 56 90 72 130 32z"/>
<path d="M1780 1300 c0 -5 6 -10 14 -10 22 0 26 -24 26 -156 0 -109 -2 -126
-19 -143 -11 -11 -17 -22 -13 -25 8 -8 137 -8 145 1 4 3 -2 13 -14 20 -17 13
-19 24 -17 76 l3 62 88 3 87 3 0 -70 c0 -61 -2 -70 -20 -76 -40 -13 -7 -25 66
-25 69 0 96 12 59 26 -12 5 -15 31 -15 150 0 119 3 146 15 150 35 14 10 24
-59 24 -73 0 -107 -12 -65 -23 18 -5 20 -12 17 -64 l-3 -58 -85 0 -85 0 -3 39
c-4 52 5 86 23 86 8 0 15 5 15 10 0 6 -33 10 -80 10 -47 0 -80 -4 -80 -10z"/>
<path d="M2290 1300 c0 -5 6 -10 14 -10 22 0 26 -24 26 -160 0 -117 -2 -130
-20 -143 -11 -8 -17 -17 -13 -20 3 -4 73 -7 154 -7 163 0 159 -2 172 68 8 38
-6 42 -28 8 -17 -26 -81 -56 -119 -56 -51 0 -56 8 -56 81 l0 69 35 0 c25 0 44
-8 61 -25 14 -14 28 -25 32 -25 4 0 7 29 7 65 0 36 -4 65 -8 65 -4 0 -18 -12
-30 -26 -15 -17 -34 -26 -57 -27 l-35 -2 -3 68 -3 67 40 0 c48 0 87 -15 123
-49 35 -31 45 -22 25 26 l-15 38 -151 3 c-98 2 -151 -1 -151 -8z"/>
<path d="M2890 1300 c0 -5 7 -10 15 -10 22 0 22 -298 0 -306 -8 -4 -15 -11
-15 -18 0 -16 148 -15 154 1 3 7 -4 15 -15 18 -16 5 -19 16 -19 71 0 48 4 66
15 70 23 9 40 -10 86 -92 l40 -74 54 0 c53 0 79 12 50 23 -8 4 -36 39 -63 80
l-49 74 28 16 c58 32 46 106 -21 139 -27 13 -63 17 -147 18 -69 0 -113 -4
-113 -10z m207 -32 c48 -45 15 -122 -50 -116 -31 3 -32 4 -35 57 -2 29 -1 60
2 67 8 21 57 17 83 -8z"/>
<path d="M3330 1301 c0 -5 7 -11 15 -15 12 -4 15 -31 15 -150 0 -139 -1 -145
-21 -151 -37 -12 0 -25 73 -25 67 0 97 13 58 25 -19 6 -20 15 -20 152 0 136 1
145 20 150 45 12 15 23 -60 23 -44 0 -80 -4 -80 -9z"/>
<path d="M3972 1293 c-13 -25 -24 -73 -16 -73 3 0 24 16 47 35 36 31 47 35 95
35 45 0 53 -3 48 -16 -3 -9 -49 -78 -102 -155 -52 -76 -93 -143 -90 -148 8
-12 182 -22 245 -13 52 7 55 8 70 49 18 51 9 65 -19 32 -38 -43 -72 -59 -129
-59 -42 0 -52 3 -48 15 3 8 47 75 97 150 50 75 94 142 97 150 4 13 -17 15
-141 15 -128 0 -146 -2 -154 -17z"/>
<path d="M5276 1283 c-14 -15 -26 -33 -26 -40 0 -29 -109 -242 -129 -252 -34
-19 -25 -29 30 -33 59 -4 68 3 39 32 -17 17 -18 23 -8 40 11 17 24 20 88 20
46 0 81 -5 88 -12 17 -17 15 -47 -3 -54 -33 -13 0 -24 69 -24 81 0 96 7 68 30
-20 16 -47 61 -126 217 -26 51 -51 95 -56 98 -5 3 -20 -7 -34 -22z m30 -134
c32 -64 27 -79 -28 -79 -69 0 -73 8 -42 73 16 32 32 57 36 57 4 0 19 -23 34
-51z"/>
<path d="M5570 1301 c0 -5 7 -11 15 -15 12 -4 15 -31 15 -151 0 -120 -3 -147
-15 -151 -8 -4 -15 -11 -15 -18 0 -16 148 -15 154 1 3 7 -4 15 -15 18 -16 5
-19 16 -19 71 0 49 4 66 15 71 15 5 55 -22 55 -38 0 -4 16 -35 35 -68 l36 -61
54 0 c57 0 67 8 39 31 -13 11 -45 56 -97 136 -5 8 3 18 22 27 58 31 44 112
-25 141 -40 17 -254 22 -254 6z m204 -32 c53 -42 21 -119 -49 -119 l-35 0 0
70 0 70 29 0 c15 0 40 -9 55 -21z"/>
<path d="M6016 1301 c-3 -5 3 -11 14 -14 19 -5 20 -14 20 -150 0 -137 -1 -146
-20 -152 -50 -16 3 -25 145 -25 168 0 170 1 175 60 4 43 1 43 -39 7 -41 -37
-108 -56 -150 -42 -20 6 -21 13 -21 151 0 119 3 146 15 150 8 4 15 10 15 15 0
12 -147 12 -154 0z"/>
<path d="M7197 1303 c-4 -3 3 -11 16 -17 21 -11 22 -17 22 -145 0 -125 -1
-134 -22 -151 -12 -9 -19 -20 -16 -24 10 -10 113 -7 113 4 0 6 -4 10 -9 10 -5
0 -17 7 -25 16 -13 12 -16 39 -16 130 0 63 4 114 9 114 7 0 187 -199 239 -264
37 -48 42 -35 42 119 0 145 9 195 37 195 7 0 13 5 13 10 0 6 -27 10 -60 10
-63 0 -75 -8 -37 -25 20 -9 22 -18 25 -97 1 -49 -1 -88 -6 -88 -5 0 -51 47
-102 105 l-91 105 -63 0 c-34 0 -66 -3 -69 -7z"/>
<path d="M4427 1151 c-9 -16 -17 -32 -17 -36 0 -3 25 -5 55 -3 51 3 58 6 76
36 l21 32 -59 0 c-54 0 -60 -2 -76 -29z"/>
<path d="M3210 636 c0 -71 4 -116 10 -116 6 0 10 37 10 90 0 50 3 90 8 90 4 0
36 -41 71 -90 36 -50 71 -90 78 -90 10 0 13 27 13 115 0 96 -3 115 -15 115
-12 0 -15 -17 -15 -92 l0 -93 -65 90 c-36 50 -72 91 -80 93 -13 3 -15 -16 -15
-112z"/>
<path d="M3470 635 l0 -115 75 0 c43 0 75 4 75 10 0 6 -27 10 -60 10 l-60 0 0
45 0 45 60 0 c33 0 60 4 60 10 0 6 -27 10 -60 10 l-60 0 0 40 0 40 60 0 c33 0
60 4 60 10 0 6 -32 10 -75 10 l-75 0 0 -115z"/>
<path d="M3691 683 c10 -38 25 -88 32 -113 20 -70 38 -58 66 43 14 48 28 84
31 80 4 -5 17 -45 30 -90 13 -47 28 -83 35 -83 14 0 81 217 71 227 -12 12 -23
-12 -46 -100 -14 -53 -26 -83 -31 -75 -4 7 -17 50 -29 96 -24 87 -38 99 -53
41 -21 -85 -39 -139 -45 -139 -4 0 -18 41 -31 90 -14 55 -28 90 -36 90 -11 0
-9 -15 6 -67z"/>
<path d="M4184 741 c-68 -29 -86 -126 -35 -183 26 -29 35 -33 81 -33 46 0 55
4 81 33 62 69 24 178 -66 187 -22 3 -50 1 -61 -4z m103 -35 c23 -20 28 -32 28
-71 0 -39 -5 -51 -28 -71 -39 -33 -81 -31 -118 5 -21 22 -29 39 -29 66 0 27 8
44 29 66 37 36 79 38 118 5z"/>
<path d="M4410 635 c0 -70 4 -115 10 -115 6 0 10 20 10 45 0 43 1 45 29 45 24
0 35 -8 58 -45 15 -25 34 -45 41 -45 14 0 11 7 -20 52 -22 32 -23 48 -3 48 36
0 47 78 15 110 -16 16 -33 20 -80 20 l-60 0 0 -115z m126 74 c17 -19 17 -23 3
-47 -13 -23 -21 -27 -59 -27 -44 0 -45 1 -48 33 -5 52 3 62 46 62 27 0 45 -7
58 -21z"/>
<path d="M4640 635 l0 -115 70 0 c40 0 70 4 70 10 0 6 -25 10 -55 10 l-55 0 0
105 c0 87 -3 105 -15 105 -12 0 -15 -19 -15 -115z"/>
<path d="M4840 635 l0 -115 75 0 c43 0 75 4 75 10 0 6 -28 10 -65 10 l-65 0 0
45 0 45 60 0 c33 0 60 4 60 10 0 6 -27 10 -60 10 l-60 0 0 40 0 40 65 0 c37 0
65 4 65 10 0 6 -32 10 -75 10 l-75 0 0 -115z"/>
<path d="M5092 673 c-16 -43 -37 -95 -46 -115 -13 -31 -14 -38 -3 -38 8 0 19
11 25 25 11 23 17 25 72 25 55 0 61 -2 72 -25 6 -14 17 -25 25 -25 11 0 10 7
-3 38 -9 20 -30 72 -46 115 -22 53 -36 77 -48 77 -12 0 -26 -24 -48 -77z m76
-11 c12 -32 22 -61 22 -65 0 -4 -22 -7 -50 -7 -27 0 -50 3 -50 7 0 13 45 123
50 123 3 0 15 -26 28 -58z"/>
<path d="M5300 635 c0 -94 3 -115 15 -115 11 0 15 19 17 91 l3 91 65 -90 c36
-50 71 -91 78 -91 9 -1 12 28 12 114 0 138 -18 156 -22 23 l-3 -93 -68 93
c-38 50 -75 92 -83 92 -11 0 -14 -22 -14 -115z"/>
<path d="M5585 727 c-26 -22 -28 -28 -20 -52 8 -22 23 -32 70 -49 41 -14 61
-27 63 -40 8 -40 -64 -61 -104 -31 -24 18 -34 19 -34 1 0 -33 111 -44 147 -15
16 14 17 73 1 86 -7 6 -37 18 -65 27 -37 12 -53 23 -53 35 0 40 56 55 97 26
12 -8 24 -11 27 -6 9 14 -20 32 -62 38 -31 4 -44 0 -67 -20z"/>
</g>
</svg>
