<?xml version="1.0" standalone="no"?>
<!DOCTYPE svg PUBLIC "-//W3C//DTD SVG 20010904//EN"
 "http://www.w3.org/TR/2001/REC-SVG-20010904/DTD/svg10.dtd">
<svg version="1.0" xmlns="http://www.w3.org/2000/svg"
 width="600.000000pt" height="321.000000pt" viewBox="0 0 600.000000 321.000000"
 preserveAspectRatio="xMidYMid meet">

<g transform="translate(0.000000,321.000000) scale(0.100000,-0.100000)"
fill="#000000" stroke="none">
<path d="M570 3142 c-20 -9 -49 -39 -68 -67 l-32 -50 22 -7 c41 -11 134 -8
152 5 16 12 12 15 -38 27 l-55 13 21 31 c12 17 28 35 35 39 14 9 18 27 6 27
-5 0 -24 -8 -43 -18z"/>
<path d="M1150 3150 c0 -5 4 -10 9 -10 4 0 20 -18 35 -40 l26 -40 -22 -1 c-13
0 -39 -6 -58 -13 -34 -12 -34 -13 -13 -24 23 -13 92 -16 141 -6 l30 6 -27 47
c-36 61 -121 118 -121 81z"/>
<path d="M673 3130 c-44 -26 -41 -40 7 -40 47 0 100 24 100 45 0 22 -68 19
-107 -5z"/>
<path d="M985 3140 c-10 -17 57 -50 103 -50 50 0 54 13 10 40 -35 21 -103 27
-113 10z"/>
<path d="M404 3061 c-32 -19 -67 -81 -79 -137 l-6 -30 70 7 c69 8 131 31 131
49 0 6 -27 10 -60 10 -33 0 -60 4 -60 9 0 21 22 67 42 89 27 28 6 30 -38 3z"/>
<path d="M1320 3071 c0 -6 5 -13 10 -16 15 -9 50 -82 43 -89 -4 -3 -33 -6 -65
-6 -32 0 -58 -4 -58 -10 0 -18 58 -39 130 -48 l72 -9 -7 36 c-9 50 -40 106
-71 130 -28 22 -54 28 -54 12z"/>
<path d="M1506 2923 c13 -39 18 -105 8 -115 -3 -3 -17 0 -32 7 -38 19 -102 30
-102 17 0 -17 68 -71 129 -102 l59 -29 6 37 c13 81 0 144 -40 192 -35 40 -44
38 -28 -7z"/>
<path d="M238 2933 c-34 -39 -48 -83 -48 -151 0 -38 3 -71 6 -75 3 -3 36 10
73 29 68 34 126 84 120 102 -2 5 -33 0 -72 -12 l-67 -22 5 55 c3 31 8 63 11
73 7 23 -8 23 -28 1z"/>
<path d="M676 2845 c-151 -42 -239 -188 -202 -338 38 -160 137 -212 431 -226
192 -10 247 -29 279 -94 51 -105 -48 -201 -218 -214 -181 -14 -344 80 -416
240 -46 102 -55 87 -55 -89 0 -124 2 -149 15 -152 8 -1 20 8 25 20 14 33 69
29 180 -12 241 -89 499 -24 576 144 23 52 25 165 3 229 -20 58 -81 122 -142
148 -52 22 -169 39 -277 39 -250 1 -383 98 -278 205 52 53 121 76 224 76 103
0 171 -18 235 -62 57 -39 110 -101 141 -164 15 -31 32 -54 38 -52 15 5 14 289
-2 294 -7 3 -18 -7 -25 -21 -17 -40 -47 -41 -129 -8 -41 17 -98 35 -127 41
-71 15 -216 12 -276 -4z"/>
<path d="M107 2715 c-22 -47 -21 -88 4 -163 l21 -62 50 42 c57 47 101 109 96
133 -2 12 -13 9 -56 -20 -30 -19 -57 -35 -61 -35 -12 0 -33 104 -25 123 12 32
-12 17 -29 -18z"/>
<path d="M1634 2733 c8 -20 -14 -123 -26 -123 -5 0 -32 16 -61 35 -42 29 -53
32 -55 19 -5 -23 39 -85 96 -132 l49 -42 22 59 c25 70 27 118 4 166 -17 35
-41 50 -29 18z"/>
<path d="M41 2482 c-7 -26 -7 -50 0 -77 11 -40 75 -145 87 -145 11 1 69 91 87
134 9 21 15 52 13 70 l-3 31 -45 -57 c-25 -31 -48 -57 -52 -57 -13 -1 -58 86
-58 112 0 40 -18 33 -29 -11z"/>
<path d="M1700 2497 c0 -24 -42 -110 -56 -113 -5 -2 -29 21 -54 51 -45 53 -45
53 -48 25 -2 -15 4 -45 13 -66 18 -43 76 -133 86 -134 13 0 80 107 90 143 7
25 7 49 -1 77 -12 43 -30 54 -30 17z"/>
<path d="M192 2227 c-12 -28 -22 -60 -22 -69 0 -10 -6 -18 -13 -18 -14 0 -87
67 -103 95 -7 11 -15 16 -20 12 -11 -10 12 -93 33 -121 18 -24 127 -106 141
-106 26 0 42 249 17 257 -5 1 -20 -21 -33 -50z"/>
<path d="M1536 2272 c-3 -5 -8 -27 -12 -50 -7 -43 24 -202 39 -202 11 0 107
73 134 101 25 28 43 70 43 105 0 29 -16 32 -25 5 -6 -21 -87 -91 -104 -91 -6
0 -11 7 -11 15 0 20 -43 125 -52 125 -4 0 -9 -4 -12 -8z"/>
<path d="M276 2044 c-3 -26 -6 -65 -6 -86 0 -34 -3 -39 -17 -33 -10 4 -31 12
-48 18 -16 5 -43 19 -58 30 -35 24 -43 17 -23 -21 26 -50 81 -90 154 -112 38
-11 73 -20 77 -20 13 0 -3 145 -21 192 -9 24 -25 51 -34 61 -16 18 -17 16 -24
-29z"/>
<path d="M1458 2063 c-26 -45 -48 -132 -48 -190 0 -29 3 -53 6 -53 4 0 39 9
78 21 57 17 79 30 114 65 23 24 42 52 42 62 0 16 -8 14 -67 -15 -70 -34 -99
-41 -87 -22 8 13 -5 159 -15 159 -4 0 -14 -12 -23 -27z"/>
<path d="M426 1873 c3 -21 13 -56 20 -78 8 -22 14 -43 14 -47 0 -13 -93 -8
-135 7 -21 8 -41 12 -44 9 -7 -7 51 -64 84 -81 18 -10 67 -18 122 -21 96 -5
104 -2 84 36 -5 9 -19 42 -31 74 -23 61 -83 138 -106 138 -12 0 -13 -8 -8 -37z"/>
<path d="M1287 1869 c-30 -35 -97 -175 -97 -203 0 -5 42 -7 94 -4 74 4 102 10
130 27 33 21 80 70 73 77 -1 2 -21 -3 -42 -11 -22 -8 -64 -14 -93 -15 l-53 0
14 28 c8 15 17 45 21 67 4 22 9 48 12 58 10 31 -23 18 -59 -24z"/>
<path d="M600 1787 c0 -11 62 -112 81 -133 19 -20 19 -20 -39 -37 -31 -9 -75
-18 -97 -19 l-39 -3 29 -20 c47 -30 145 -32 225 -3 36 13 67 26 70 30 8 11
-98 126 -140 153 -38 24 -90 42 -90 32z"/>
<path d="M1105 1770 c-49 -25 -77 -50 -133 -118 -30 -35 -40 -53 -30 -56 7 -3
39 -14 71 -25 77 -28 156 -27 210 1 l42 23 -35 3 c-45 3 -160 33 -160 41 0 3
11 16 25 29 20 19 75 106 75 118 0 10 -28 2 -65 -16z"/>
<path d="M854 1705 c-23 -43 -11 -70 31 -70 42 0 53 26 30 69 -11 20 -25 36
-31 36 -6 0 -19 -16 -30 -35z"/>
<path d="M850 1565 c-14 -17 -7 -51 18 -84 l19 -23 21 36 c12 21 22 43 22 50
0 34 -57 49 -80 21z"/>
<path d="M294 1400 c-67 -10 -148 -54 -185 -101 -47 -60 -63 -106 -63 -189 0
-64 4 -82 29 -128 55 -101 131 -136 330 -152 150 -11 215 -30 250 -72 24 -28
27 -39 23 -83 -6 -68 -34 -106 -100 -136 -45 -20 -69 -24 -158 -24 -95 0 -111
3 -162 28 -91 45 -151 122 -192 250 -3 9 -12 17 -21 17 -13 0 -15 -23 -15
-160 0 -126 3 -160 13 -160 7 0 20 15 28 32 8 18 21 34 30 36 9 2 51 -13 93
-33 96 -45 169 -59 266 -52 144 11 259 79 306 182 48 102 24 268 -47 331 -72
63 -131 81 -299 95 -217 17 -270 44 -270 140 0 92 84 149 219 149 146 -1 283
-99 323 -232 8 -26 17 -38 30 -38 17 0 18 9 16 142 -2 103 -6 143 -16 146 -7
2 -15 -9 -19 -28 -3 -17 -12 -34 -20 -37 -8 -3 -52 10 -97 30 -45 20 -112 41
-147 46 -70 12 -71 12 -145 1z"/>
<path d="M827 1384 c-18 -18 -4 -33 31 -36 l37 -3 0 -405 0 -405 -37 -3 c-30
-3 -38 -7 -38 -23 0 -18 9 -19 180 -19 171 0 180 1 180 19 0 16 -8 20 -37 23
l-38 3 -3 223 c-2 185 0 229 13 256 50 106 202 114 240 13 13 -35 15 -81 13
-267 l-3 -225 -37 -3 c-30 -3 -38 -7 -38 -23 0 -18 9 -19 180 -19 171 0 180 1
180 19 0 16 -8 20 -37 23 l-38 3 -5 235 c-4 203 -8 240 -24 273 -35 70 -117
107 -238 107 -71 0 -121 -15 -165 -50 -14 -11 -29 -20 -34 -20 -5 0 -10 69
-11 153 l-3 152 -131 3 c-71 1 -133 -1 -137 -4z"/>
<path d="M3966 1317 c-16 -84 -101 -166 -189 -182 -51 -10 -48 -39 5 -43 l36
-3 4 -252 c3 -231 5 -255 23 -286 30 -50 64 -71 127 -78 106 -11 190 27 216
97 6 14 11 48 13 75 3 39 1 50 -11 50 -10 0 -17 -14 -20 -46 -12 -98 -73 -133
-127 -73 -23 25 -23 30 -23 269 l0 244 57 3 c45 2 59 7 61 20 3 14 -6 17 -55
20 l-58 3 -3 108 c-3 105 -3 107 -26 107 -19 0 -25 -7 -30 -33z"/>
<path d="M5833 1235 c-38 -16 -53 -42 -53 -88 0 -45 46 -88 93 -86 32 1 32 1
-5 8 -49 10 -66 26 -74 67 -7 40 14 80 51 94 30 11 82 -5 95 -30 17 -32 11
-82 -12 -107 -12 -13 -17 -23 -10 -23 18 0 52 51 52 79 0 36 -26 70 -66 87
-39 16 -31 17 -71 -1z"/>
<path d="M5840 1189 c0 -5 5 -7 10 -4 6 3 10 8 10 11 0 2 -4 4 -10 4 -5 0 -10
-5 -10 -11z"/>
<path d="M5897 1180 c6 -21 3 -22 -25 -18 -30 4 -32 3 -31 -26 0 -30 1 -30 10
-7 7 18 12 21 22 12 19 -15 46 34 29 51 -8 8 -9 5 -5 -12z"/>
<path d="M1907 1139 c-95 -22 -173 -87 -216 -178 -23 -49 -26 -69 -26 -156 0
-89 4 -106 28 -157 33 -67 80 -111 157 -147 48 -22 68 -26 160 -25 113 0 165
15 236 69 59 45 112 195 69 195 -9 0 -15 -9 -15 -25 0 -32 -31 -93 -62 -122
-68 -63 -204 -84 -269 -40 -63 42 -96 112 -101 213 l-3 49 234 3 234 2 -7 58
c-9 87 -60 179 -119 219 -27 18 -65 37 -85 43 -44 12 -162 12 -215 -1z m177
-40 c14 -11 33 -34 41 -50 17 -32 37 -163 28 -185 -4 -12 -33 -14 -147 -12
l-141 3 3 45 c4 51 35 136 60 165 48 57 109 71 156 34z"/>
<path d="M2755 1143 c-11 -2 -37 -18 -58 -34 -39 -32 -57 -31 -57 2 0 18 -8
19 -141 19 -128 0 -140 -2 -137 -17 2 -13 14 -19 41 -21 l37 -3 -2 -277 -3
-277 -38 -3 c-30 -3 -37 -7 -35 -20 3 -15 24 -17 181 -20 172 -2 177 -2 177
18 0 16 -7 20 -34 20 -22 0 -36 6 -40 16 -10 26 -7 294 5 364 14 87 52 155
104 186 42 24 115 33 115 14 0 -5 -6 -10 -14 -10 -7 0 -25 -11 -40 -25 -20
-19 -26 -33 -26 -68 0 -58 34 -92 91 -91 101 3 130 122 49 199 -26 25 -39 29
-93 31 -34 2 -71 0 -82 -3z"/>
<path d="M3179 1137 c-107 -30 -164 -91 -156 -166 7 -60 35 -86 93 -86 77 0
115 65 79 135 -9 17 -19 30 -23 30 -5 0 -17 6 -27 14 -18 13 -17 15 20 31 51
21 134 21 175 0 65 -34 91 -126 49 -179 -29 -37 -59 -50 -174 -76 -111 -25
-147 -40 -188 -78 -51 -48 -58 -142 -17 -210 32 -53 91 -76 190 -76 93 1 141
16 181 58 31 33 39 33 71 -8 34 -43 85 -60 154 -53 100 10 145 61 148 168 1
42 -2 54 -14 54 -10 0 -16 -12 -18 -35 -5 -73 -13 -100 -33 -111 -16 -8 -26
-7 -44 5 -23 15 -23 18 -27 228 -3 193 -6 217 -25 253 -24 46 -44 65 -93 91
-45 23 -252 30 -321 11z m221 -413 l0 -126 -35 -35 c-31 -31 -39 -34 -82 -31
-41 3 -50 7 -70 37 -32 47 -32 125 0 171 20 31 145 109 175 110 9 0 12 -32 12
-126z"/>
<path d="M4473 1136 c-150 -49 -236 -169 -236 -331 0 -139 60 -237 181 -297
61 -30 73 -33 167 -33 120 0 186 20 252 79 70 61 96 123 101 236 3 80 0 104
-19 154 -28 76 -93 146 -162 177 -65 28 -218 37 -284 15z m181 -37 c40 -31 63
-85 77 -179 12 -87 7 -228 -11 -291 -46 -161 -215 -165 -262 -6 -19 66 -16
310 5 378 32 105 123 151 191 98z"/>
<path d="M5359 1137 c-20 -8 -50 -24 -68 -36 l-31 -22 0 25 0 26 -146 0 c-133
0 -145 -1 -142 -17 2 -13 14 -19 41 -21 l37 -3 -2 -277 -3 -277 -37 -3 c-30
-3 -38 -7 -38 -23 0 -18 9 -19 180 -19 173 0 180 1 180 20 0 16 -7 20 -35 20
l-35 0 0 240 0 240 36 40 c42 46 86 58 146 41 33 -10 43 -20 59 -56 18 -40 19
-65 17 -272 l-3 -228 -38 -3 c-30 -3 -37 -7 -35 -20 3 -15 24 -17 181 -20 170
-2 177 -2 177 17 0 16 -8 20 -37 23 l-38 3 -5 241 c-5 240 -5 241 -32 281 -39
59 -101 86 -208 90 -54 2 -98 -2 -121 -10z"/>
<path d="M67 353 c-4 -3 -7 -71 -7 -150 0 -120 2 -143 15 -143 12 0 15 19 15
110 0 61 4 110 9 110 5 0 44 -49 86 -110 41 -61 82 -110 91 -110 12 0 14 22
12 148 -3 123 -5 147 -18 147 -12 0 -16 -21 -20 -110 l-5 -110 -78 113 c-76
109 -86 119 -100 105z"/>
<path d="M387 354 c-4 -4 -7 -72 -7 -151 l0 -143 95 0 c78 0 95 3 95 15 0 12
-15 15 -75 15 l-75 0 0 50 0 49 68 3 c52 2 67 6 67 18 0 12 -15 16 -67 18
l-68 3 0 44 0 44 73 3 c56 2 72 6 72 18 0 12 -17 16 -85 18 -47 1 -89 0 -93
-4z"/>
<path d="M637 353 c-3 -5 11 -73 31 -151 29 -113 41 -142 54 -142 12 0 21 13
28 43 7 23 19 69 28 102 21 80 28 86 42 34 58 -223 64 -227 110 -62 42 153 47
187 29 181 -8 -3 -25 -46 -40 -106 -24 -98 -33 -121 -44 -110 -3 2 -17 50 -32
107 -20 76 -30 101 -41 99 -9 -2 -18 -14 -22 -28 -28 -98 -39 -139 -45 -165
-9 -40 -17 -24 -45 90 -22 87 -41 127 -53 108z"/>
<path d="M1222 340 c-40 -24 -62 -73 -62 -134 0 -56 10 -84 45 -118 81 -81
215 -10 215 114 0 122 -104 195 -198 138z m115 -30 c88 -54 57 -220 -42 -220
-49 0 -74 15 -91 55 -36 86 9 181 86 184 8 1 29 -8 47 -19z"/>
<path d="M1500 210 c0 -143 1 -150 20 -150 18 0 20 7 20 59 0 33 4 62 9 65 20
13 58 -15 91 -68 21 -33 42 -56 53 -56 23 0 22 3 -18 59 -41 56 -43 67 -14 76
11 4 27 22 36 41 15 31 15 37 0 68 -19 40 -60 56 -144 56 l-53 0 0 -150z m158
98 c17 -17 15 -63 -4 -79 -9 -7 -37 -13 -62 -13 l-47 -1 -3 53 -3 52 53 0 c30
0 59 -5 66 -12z"/>
<path d="M1797 353 c-4 -3 -7 -71 -7 -150 l0 -143 95 0 c77 0 95 3 95 15 0 11
-18 15 -77 17 l-78 3 -3 133 c-2 121 -7 144 -25 125z"/>
<path d="M2055 348 c-3 -7 -4 -74 -2 -148 l2 -135 93 -3 c77 -2 92 0 92 13 0
12 -14 15 -75 15 l-75 0 0 50 0 49 68 3 c52 2 67 6 67 18 0 12 -15 16 -67 18
l-68 3 0 44 0 45 75 0 c68 0 75 2 75 20 0 19 -7 20 -90 20 -63 0 -92 -4 -95
-12z"/>
<path d="M2423 352 c-7 -4 -19 -26 -27 -47 -19 -52 -48 -127 -75 -192 -19 -50
-20 -53 -3 -53 12 0 23 14 33 43 l16 42 62 3 61 3 20 -46 c11 -26 26 -45 35
-45 20 0 19 3 -42 160 -48 123 -61 144 -80 132z m51 -150 c7 -21 4 -22 -38
-22 -51 0 -53 5 -35 61 21 61 31 66 50 23 9 -22 19 -49 23 -62z"/>
<path d="M2647 353 c-4 -3 -7 -71 -7 -150 0 -120 2 -143 15 -143 12 0 15 19
15 110 0 61 3 110 8 110 4 -1 41 -50 82 -110 41 -61 81 -110 88 -110 9 0 12
37 12 151 0 116 -3 150 -12 147 -9 -3 -14 -37 -16 -111 -1 -59 -6 -107 -10
-107 -4 1 -36 43 -70 95 -68 99 -94 129 -105 118z"/>
<path d="M2969 331 c-51 -51 -31 -112 44 -131 82 -21 97 -30 97 -60 0 -15 -7
-34 -16 -41 -25 -21 -80 -16 -107 9 -27 25 -47 29 -47 8 0 -21 46 -54 84 -62
77 -14 148 56 115 115 -16 29 -43 44 -109 63 -39 11 -45 17 -48 43 -7 56 68
76 114 30 14 -14 29 -25 34 -25 20 0 9 29 -21 54 -44 37 -101 36 -140 -3z"/>
<path d="M3360 210 c0 -130 2 -150 16 -150 13 0 15 11 13 62 l-3 63 87 3 87 3
0 -66 c0 -51 3 -65 15 -65 13 0 15 23 15 151 0 116 -3 150 -12 147 -8 -3 -14
-28 -16 -66 l-3 -62 -84 0 -85 0 0 49 c0 54 -7 81 -21 81 -5 0 -9 -67 -9 -150z"/>
<path d="M3755 351 c-79 -35 -105 -164 -50 -247 23 -35 79 -57 124 -49 108 20
147 188 62 269 -32 30 -98 44 -136 27z m94 -36 c43 -22 68 -97 51 -150 -29
-89 -135 -103 -176 -23 -26 50 -14 125 25 160 35 31 59 35 100 13z"/>
<path d="M4000 340 c0 -17 7 -20 50 -20 l50 0 0 -130 c0 -109 2 -130 15 -130
13 0 15 21 15 130 l0 130 55 0 c48 0 55 2 55 20 0 19 -7 20 -120 20 -113 0
-120 -1 -120 -20z"/>
<path d="M4317 353 c-4 -3 -7 -71 -7 -150 l0 -143 95 0 c78 0 95 3 95 15 0 12
-15 15 -75 15 -70 0 -75 1 -81 24 -3 13 -4 35 -2 47 3 22 8 24 71 27 59 3 67
5 67 22 0 18 -7 20 -64 20 l-63 0 -6 37 c-4 20 -4 40 -1 45 3 4 39 8 80 8 67
0 74 2 74 20 0 18 -7 20 -88 20 -49 0 -92 -3 -95 -7z"/>
<path d="M4587 354 c-4 -4 -7 -72 -7 -151 l0 -143 95 0 c78 0 95 3 95 15 0 12
-15 15 -75 15 l-74 0 -3 132 c-3 122 -10 153 -31 132z"/>
</g>
</svg>
